<?xml version="1.0" encoding="UTF-8" standalone="no"?>
<svg
   xmlns:dc="http://purl.org/dc/elements/1.1/"
   xmlns:cc="http://creativecommons.org/ns#"
   xmlns:rdf="http://www.w3.org/1999/02/22-rdf-syntax-ns#"
   xmlns:svg="http://www.w3.org/2000/svg"
   xmlns="http://www.w3.org/2000/svg"
   xmlns:xlink="http://www.w3.org/1999/xlink"
   xmlns:sodipodi="http://sodipodi.sourceforge.net/DTD/sodipodi-0.dtd"
   xmlns:inkscape="http://www.inkscape.org/namespaces/inkscape"
   width="390.832"
   height="375.26813"
   viewBox="0 0 390.832 375.26815"
   version="1.1"
   id="svg8"
   inkscape:version="1.0.2 (e86c870879, 2021-01-15)"
   sodipodi:docname="ui-design.svg">
  <defs
     id="defs2">
    <rect
       x="95.254379"
       y="43.580399"
       width="232.07385"
       height="28.200645"
       id="rect1981" />
    <rect
       x="119.12912"
       y="242.51039"
       width="74.890007"
       height="54.71064"
       id="rect841" />
    <rect
       x="72.595055"
       y="132.0714"
       width="53.746258"
       height="39.339886"
       id="rect835" />
    <rect
       x="49.724209"
       y="77.717812"
       width="156.81335"
       height="144.53909"
       id="rect1434" />
    <rect
       x="49.724209"
       y="77.717812"
       width="156.81335"
       height="144.53909"
       id="rect1562" />
    <rect
       x="49.724209"
       y="77.717812"
       width="156.81335"
       height="144.53909"
       id="rect1434-0-0" />
    <rect
       x="49.724209"
       y="77.717812"
       width="156.81335"
       height="144.53909"
       id="rect1601" />
    <rect
       x="49.724209"
       y="77.717812"
       width="156.81335"
       height="144.53909"
       id="rect1434-0-0-2" />
    <rect
       x="49.724209"
       y="77.717812"
       width="156.81335"
       height="144.53909"
       id="rect1642" />
    <rect
       x="49.724209"
       y="77.717812"
       width="156.81335"
       height="144.53909"
       id="rect1434-8" />
    <rect
       x="49.724209"
       y="77.717812"
       width="156.81335"
       height="144.53909"
       id="rect1740" />
  </defs>
  <sodipodi:namedview
     id="base"
     pagecolor="#ffffff"
     bordercolor="#666666"
     borderopacity="1.0"
     inkscape:pageopacity="1"
     inkscape:pageshadow="2"
     inkscape:zoom="1.979899"
     inkscape:cx="193.50317"
     inkscape:cy="197.49847"
     inkscape:document-units="px"
     inkscape:current-layer="layer1"
     inkscape:document-rotation="0"
     showgrid="false"
     units="px"
     inkscape:window-width="1533"
     inkscape:window-height="1205"
     inkscape:window-x="2716"
     inkscape:window-y="353"
     inkscape:window-maximized="0"
     fit-margin-top="0"
     fit-margin-left="0"
     fit-margin-right="0"
     fit-margin-bottom="0"
     inkscape:pagecheckerboard="true" />
  <metadata
     id="metadata5">
    <rdf:RDF>
      <cc:Work
         rdf:about="">
        <dc:format>image/svg+xml</dc:format>
        <dc:type
           rdf:resource="http://purl.org/dc/dcmitype/StillImage" />
        <dc:title></dc:title>
      </cc:Work>
    </rdf:RDF>
  </metadata>
  <g
     inkscape:label="Layer 1"
     inkscape:groupmode="layer"
     id="layer1"
     transform="translate(-91.107506,-87.60041)">
    <rect
       style="fill:#000000;stroke:none;stroke-width:3.34868;stroke-miterlimit:1;stroke-dasharray:none;stroke-opacity:1"
       id="rect1977"
       width="390.832"
       height="375.26813"
       x="91.107506"
       y="87.60041" />
    <g
       aria-label="âŠ•"
       transform="translate(297.5588,55.119072)"
       id="text1432"
       style="font-style:normal;font-weight:normal;font-size:16px;line-height:1.25;font-family:sans-serif;letter-spacing:0px;word-spacing:0px;white-space:pre;shape-inside:url(#rect1434);fill:#00ffff;fill-opacity:1;stroke:none">
      <path
         d="m 64.878238,87.529937 q -1.33203,-0.558593 -2.86458,-0.558593 -1.532551,0 -2.86458,0.558593 -1.317707,0.558593 -2.406248,1.647133 -1.102863,1.102863 -1.647133,2.42057 -0.54427,1.317707 -0.54427,2.878903 0,1.518228 0.54427,2.835934 0.54427,1.317707 1.647133,2.420571 1.088541,1.088542 2.406248,1.647132 1.332029,0.55859 2.86458,0.55859 1.53255,0 2.86458,-0.55859 1.317707,-0.55859 2.406247,-1.647132 1.102863,-1.102864 1.647134,-2.420571 0.54427,-1.317706 0.54427,-2.835934 0,-1.561196 -0.54427,-2.878903 -0.544271,-1.317707 -1.647134,-2.42057 -1.08854,-1.08854 -2.406247,-1.647133 z m -6.545566,-1.990883 q 1.704426,-0.716145 3.680986,-0.716145 1.97656,0 3.680985,0.716145 1.704425,0.716145 3.108069,2.119789 1.417968,1.417967 2.11979,3.122392 0.701822,1.690102 0.701822,3.695308 0,1.962238 -0.701822,3.666663 -0.701822,1.690102 -2.11979,3.108074 -1.403644,1.40364 -3.108069,2.11978 -1.704425,0.71615 -3.680985,0.71615 -1.97656,0 -3.680986,-0.71615 -1.704425,-0.71614 -3.108069,-2.11978 -1.417967,-1.417972 -2.119789,-3.108074 -0.701822,-1.704425 -0.701822,-3.666663 0,-2.005206 0.701822,-3.695308 0.701822,-1.704425 2.119789,-3.122392 1.403644,-1.403644 3.108069,-2.119789 z m 4.898432,2.606767 v 5.113276 h 5.098953 v 2.434893 h -5.098953 v 5.11328 h -2.434893 v -5.11328 h -5.098952 v -2.434893 h 5.098952 v -5.113276 z"
         style="font-size:29.3333px;fill:#00ffff"
         id="path1589" />
    </g>
    <g
       aria-label="âŠ"
       transform="translate(262.84361,253.38446)"
       id="text1432-9-6"
       style="font-style:normal;font-variant:normal;font-weight:normal;font-stretch:normal;font-size:29.3333px;line-height:1.25;font-family:sans-serif;-inkscape-font-specification:'sans-serif, Normal';font-variant-ligatures:normal;font-variant-caps:normal;font-variant-numeric:normal;font-variant-east-asian:normal;letter-spacing:0px;word-spacing:0px;white-space:pre;shape-inside:url(#rect1434-0-0);fill:#00ff00;fill-opacity:1;stroke:none">
      <path
         d="m 64.878238,87.529937 q -1.33203,-0.558593 -2.86458,-0.558593 -1.532551,0 -2.86458,0.558593 -1.317707,0.558593 -2.406248,1.647133 -1.102863,1.102863 -1.647133,2.42057 -0.54427,1.317707 -0.54427,2.878903 0,1.518228 0.54427,2.835934 0.54427,1.317707 1.647133,2.420571 1.088541,1.088542 2.406248,1.647132 1.332029,0.55859 2.86458,0.55859 1.53255,0 2.86458,-0.55859 1.317707,-0.55859 2.406247,-1.647132 1.102863,-1.102864 1.647134,-2.420571 0.54427,-1.317706 0.54427,-2.835934 0,-1.561196 -0.54427,-2.878903 -0.544271,-1.317707 -1.647134,-2.42057 -1.08854,-1.08854 -2.406247,-1.647133 z m -6.545566,-1.990883 q 1.704426,-0.716145 3.680986,-0.716145 1.97656,0 3.680985,0.716145 1.704425,0.716145 3.108069,2.119789 1.417968,1.417967 2.11979,3.122392 0.701822,1.690102 0.701822,3.695308 0,1.962238 -0.701822,3.666663 -0.701822,1.690102 -2.11979,3.108074 -1.403644,1.40364 -3.108069,2.11978 -1.704425,0.71615 -3.680985,0.71615 -1.97656,0 -3.680986,-0.71615 -1.704425,-0.71614 -3.108069,-2.11978 -1.417967,-1.417972 -2.119789,-3.108074 -0.701822,-1.704425 -0.701822,-3.666663 0,-2.005206 0.701822,-3.695308 0.701822,-1.704425 2.119789,-3.122392 1.403644,-1.403644 3.108069,-2.119789 z m -0.902342,7.720043 h 9.166656 V 95.69399 H 57.43033 Z"
         id="path1628"
         style="fill:#00ff00" />
    </g>
    <g
       aria-label="ðŸžŠ"
       transform="matrix(1.6011673,0,0,1.6011673,368.469,305.00393)"
       id="text1432-1"
       style="font-style:normal;font-variant:normal;font-weight:normal;font-stretch:normal;font-size:16px;line-height:1.25;font-family:sans-serif;-inkscape-font-specification:'sans-serif, Normal';font-variant-ligatures:normal;font-variant-caps:normal;font-variant-numeric:normal;font-variant-east-asian:normal;letter-spacing:0px;word-spacing:0px;white-space:pre;shape-inside:url(#rect1434-8);fill:#ffff00;fill-opacity:1;stroke:none">
      <path
         d="m 56.876609,92.419 q -1.312,0 -2.464,-0.496 -1.136,-0.48 -2.016,-1.344 -0.864,-0.88 -1.36,-2.032 -0.496,-1.152 -0.496,-2.464 0,-1.312 0.496,-2.464 0.496,-1.152 1.36,-2.016 0.88,-0.88 2.016,-1.36 1.152,-0.496 2.464,-0.496 1.312,0 2.464,0.496 1.152,0.48 2.016,1.36 0.88,0.864 1.36,2.016 0.496,1.152 0.496,2.464 0,1.312 -0.496,2.464 -0.48,1.152 -1.36,2.032 -0.864,0.864 -2.016,1.344 -1.152,0.496 -2.464,0.496 z m 0,-1.104 q 1.088,0 2.032,-0.4 0.944,-0.416 1.664,-1.136 0.72,-0.72 1.12,-1.664 0.416,-0.944 0.416,-2.032 0,-1.088 -0.416,-2.032 -0.4,-0.944 -1.12,-1.664 -0.72,-0.72 -1.664,-1.12 -0.944,-0.416 -2.032,-0.416 -1.088,0 -2.032,0.416 -0.944,0.4 -1.664,1.12 -0.72,0.72 -1.136,1.664 -0.4,0.944 -0.4,2.032 0,1.088 0.4,2.032 0.416,0.944 1.136,1.664 0.72,0.72 1.664,1.136 0.944,0.4 2.032,0.4 z m 0,-3.184 q -0.56,0 -1.04,-0.272 -0.464,-0.272 -0.736,-0.736 -0.272,-0.48 -0.272,-1.04 0,-0.56 0.272,-1.024 0.272,-0.48 0.736,-0.752 0.48,-0.288 1.04,-0.288 0.56,0 1.024,0.288 0.48,0.272 0.752,0.752 0.288,0.464 0.288,1.024 0,0.56 -0.288,1.04 -0.272,0.464 -0.752,0.736 -0.464,0.272 -1.024,0.272 z"
         id="path1767"
         style="fill:#ffff00" />
    </g>
    <circle
       style="fill:none;stroke:#ffff00;stroke-width:3;stroke-miterlimit:1;stroke-dasharray:none;stroke-opacity:1"
       id="path1798"
       cx="197.08873"
       cy="175.65244"
       r="10" />
    <circle
       style="fill:#b3b3b3;stroke:none;stroke-width:3;stroke-miterlimit:1;stroke-dasharray:none;stroke-opacity:1"
       id="path1800-6"
       cx="365.33286"
       cy="381.34824"
       r="3" />
    <g
       id="g1923"
       transform="translate(-213.15199,-147.76805)">
      <circle
         style="fill:none;stroke:#ffffff;stroke-width:3;stroke-miterlimit:1;stroke-dasharray:none;stroke-opacity:1"
         id="path1798-0"
         cx="410.24072"
         cy="294.52786"
         r="10" />
      <circle
         style="fill:none;stroke:#ffffff;stroke-width:1.45548;stroke-miterlimit:1;stroke-dasharray:none;stroke-opacity:1"
         id="path1798-0-5"
         cx="410.24072"
         cy="294.52786"
         r="4.8515825" />
    </g>
    <use
       x="0"
       y="0"
       xlink:href="#text1432"
       id="use1949"
       transform="translate(0,26.864905)"
       width="100%"
       height="100%" />
    <use
       x="0"
       y="0"
       xlink:href="#text1432"
       id="use1951"
       transform="translate(-214.56085,233.89558)"
       width="100%"
       height="100%" />
    <use
       x="0"
       y="0"
       xlink:href="#text1432"
       id="use1953"
       transform="translate(-27.297808,26.864905)"
       width="100%"
       height="100%" />
    <use
       x="0"
       y="0"
       xlink:href="#text1432"
       id="use1955"
       transform="translate(27.297776,26.864905)"
       width="100%"
       height="100%" />
    <use
       x="0"
       y="0"
       xlink:href="#text1432"
       id="use1957"
       transform="translate(-188.45482,258.44471)"
       width="100%"
       height="100%" />
    <use
       x="0"
       y="0"
       xlink:href="#text1432"
       id="use1959"
       transform="translate(0,52.432048)"
       width="100%"
       height="100%" />
    <use
       x="0"
       y="0"
       xlink:href="#text1432"
       id="use1961"
       transform="translate(-214.56085,258.44471)"
       width="100%"
       height="100%" />
    <use
       x="0"
       y="0"
       xlink:href="#text1432"
       id="use1963"
       transform="translate(-188.45482,233.89558)"
       width="100%"
       height="100%" />
    <use
       x="0"
       y="0"
       xlink:href="#g1923"
       id="use1965"
       transform="translate(-30.065263,28.89263)"
       width="100%"
       height="100%" />
    <use
       x="0"
       y="0"
       xlink:href="#g1923"
       id="use1967"
       transform="translate(-30.065263)"
       width="100%"
       height="100%" />
    <use
       x="0"
       y="0"
       xlink:href="#path1800-6"
       id="use1969"
       transform="translate(35.879528,25.191851)"
       width="100%"
       height="100%" />
    <use
       x="0"
       y="0"
       xlink:href="#text1432-9-6"
       id="use1973"
       transform="translate(-186.88427,-116.40781)"
       width="100%"
       height="100%" />
    <use
       x="0"
       y="0"
       xlink:href="#text1432-9-6"
       id="use1975"
       transform="translate(-187.61663,-141.63024)"
       width="100%"
       height="100%" />
    <text
       xml:space="preserve"
       id="text1979"
       style="font-style:normal;font-weight:normal;font-size:16px;line-height:1.25;font-family:sans-serif;letter-spacing:0px;word-spacing:0px;white-space:pre;shape-inside:url(#rect1981);fill:#cccccc;fill-opacity:1;stroke:none;"
       transform="translate(0.42668217,48.477257)"><tspan
         x="95.253906"
         y="57.736328"><tspan
           style="fill:#cccccc">Field: 3  | Par: 2 | Shots: 1</tspan></tspan></text>
  </g>
</svg>
